<svg id="Layer_1" data-name="Layer 1" xmlns="http://www.w3.org/2000/svg" viewBox="0 0 80.08 48.51">
  <defs>
    <style>
      .cls-1 {
        fill: #fefefe;
      }

      .cls-2 {
        fill: #fefdfd;
      }
    </style>
  </defs>
  <title>handshake</title>
  <g id="left_group">
    <path class="cls-1" d="M8.71,27.63Q11.46,16.3,14.22,5c0.2-.84.49-1.66,0.75-2.48C11.7,1.26,8.18,1.33,4.85.51c-1.63-.4-2,0.12-2.14,1.7C1.93,11.09,1.12,20,.11,28.8c-0.25,2.16-.29,3.69,2.28,4,1.7-.06,3.65,1.66,4.82.65s1-3.14,1.48-4.78A3,3,0,0,1,9.07,28l0.11-.09A0.76,0.76,0,0,1,8.71,27.63Z"/>
    <path class="cls-1" d="M64.31,29.23c0.08-1.13-.8-1.67-1.45-2.33A90.92,90.92,0,0,0,46.77,14.36c-6-3.89-11.92-5.14-18.39-1.18a9.82,9.82,0,0,1-7.69,1.14c-2.13-.54-2.49-1.89-1.08-3.6C20.51,9.61,22,9,22.24,7.32c-0.85-1-2.23-.34-3.19-1a6.77,6.77,0,0,0-1.54-.43C16.27,6,15.72,7,15.33,8.58,13.78,14.8,12,21,10.26,27.13a1.49,1.49,0,0,0,.32.53c1.41,1.37,2.71,2.84,5,2.41A2,2,0,0,1,18,31.31a2,2,0,0,0,.15.75c1.09,2,3.11.15,4.4,1s1.77,3.24,4,2.77c2.39-.51,3.09.8,3.37,2.74,0.35,1.74,1.8,2.5,3.05,3.45,1.23,1.5,1.71,3.89,4.39,3.67a3.94,3.94,0,0,0,1.93,1.64c3,1.89,4.45,1.46,5.74-1.83,0.38-1,.7-0.33,1.07-0.26,4,0.76,5.5-.61,5-4.48,6.3,0.73,6.73.39,6.81-5.26,4.4,1.8,6.74,1,7.39-2.62C65.43,31.55,64.79,30.42,64.31,29.23Z"/>
  </g>
  <g id="right_group">
    <g>
      <path class="cls-1" d="M64.52,7.73h0a2.7,2.7,0,0,0-1.84-1.59C58.62,5,54.62,3.6,50.54,2.55,40.61,0,31.22.68,23,7.57c-1,.87-1.93,1.73-2.87,2.61-0.57.53-1.23,1.11-.85,2a2.19,2.19,0,0,0,1.92,1.14,10.13,10.13,0,0,0,6.55-1.24c7.65-4.64,14.36-2.82,21.16,2.08,5.71,4.12,11.4,8.19,16.25,13.32l4.1-.6Q67.08,18.3,64.93,9.73C64.76,9.07,64.65,8.39,64.52,7.73Z"/>
      <path class="cls-1" d="M80,28.74C79.08,20.18,78.37,11.58,77.57,3,76.88-.28,76.88-0.28,73.46.27c-0.6.1-1.21,0.11-1.8,0.22-2.2.39-5.19,0.09-6.39,1.4s0.89,4.05.89,6.27c1.72,6.35,3.53,12.68,4.77,19.15a5.43,5.43,0,0,1,.44.92c1.36,5.18,1.33,5.08,6.49,3.87C79.92,31.63,80.25,30.76,80,28.74Z"/>
    </g>
    <path class="cls-2" d="M32.41,42c-2.24.14-3.81-.48-3.62-3.15a1.6,1.6,0,0,0-.31-0.7c-2.63-1.67-6.15-1.76-8.14-4.61a1.12,1.12,0,0,0-1,.12c-2.21,1.82-2.44-.35-3.16-1.54-1.15-.76-2.34-1.33-3.42,0S11.1,35.22,12,37s2.53,1.36,4,1c0.69,3.56,1.08,3.27,4.5,4.1,2.7,0.65,4.8,3.23,7.71,3.94a1.13,1.13,0,0,1,.1.23C30.07,48.5,34.61,48.35,36,46,34.1,45.31,33.53,43.4,32.41,42Z"/>
  </g>
</svg>
