<svg id="Layer_1" data-name="Layer 1" xmlns="http://www.w3.org/2000/svg" viewBox="0 0 326.4 488.26">
  <defs>
    <style>
      .cls-1, .cls-2, .cls-3 {
        fill: none;
        stroke-miterlimit: 10;
      }

      .cls-1 {
        stroke: blue;
      }

      .cls-1, .cls-2 {
        stroke-width: 0.5px;
      }

      .cls-2, .cls-3 {
        stroke: #000;
      }
    </style>
  </defs>
  <title>my_face</title>
  <g>
    <path id="glasses" class="cls-1" d="M322.34,203.33a287,287,0,0,1-61-.19c-9.18-3.88-22-2.3-31-2.3-15.19,0-30.08,1.29-44.76,5.35-19.33,5.35-37.92,13.46-58.4,9.53l-0.21,0c-7.67-4.26-17.4-3.34-26.16-3.28A509.81,509.81,0,0,0,49,215.57a3.76,3.76,0,0,0-1.24.37c-5.62-.21-11.43.63-15,5.48-4.6,6.21-1,11.55,2.5,17.25,8.61,14.1,9.42,41.32,27.33,48.13,8.83,3.36,20.1,1,29.15-.1,8.74-1,18.31-2.11,26.13-6.45,14.72-8.18,18.44-30.83,21.17-47.87a2.85,2.85,0,0,1,.53-0.78c11.76-14.65,23.3,13.76,27,20.43,3.58,6.47,6.81,14,12.32,19.12,10.34,9.67,28.79,9.27,42,8.77s30.38-1.36,40.87-10.51c11.4-9.94,11-25.2,9.16-39a1.88,1.88,0,0,0,.11-0.33,3.28,3.28,0,0,0,.35-0.63c15.29-11.62,33.61-15.59,52.13-19.17C327.34,209.53,326.34,202.92,322.34,203.33Zm-192,33.8a9,9,0,0,1-.24,2c-1.5,6.67-3.2,13.29-5.21,19.76-5.93,19-24.52,20.06-41.79,21.5-7.75.64-16.42,2.39-23-3.6-5.22-4.79-7.47-13.5-9.67-20-1.52-4.5-2.95-9-4.84-13.41-0.59-1.36-1.42-2.75-2.15-4.15a3.83,3.83,0,0,0-.13-0.54,13,13,0,0,1,.77-10.52l0,0,0-.07a11.92,11.92,0,0,1,6-5.23,14.58,14.58,0,0,1,4.45-.76c10.9-1.1,21.81-1.91,32.76-2.3,10-.35,28.19-3.48,37.29,2.88a15.47,15.47,0,0,1,1.3,1.36A21.49,21.49,0,0,1,130.33,237.13Zm130.93,20.82c-5.2,9.62-14.79,11.85-24.84,13.36-16.57,2.49-45.33,6-56.34-9.8-3.06-4.4-7.5-14.34-12.95-23.45a8.78,8.78,0,0,1-1.07-2.7c-0.81-3.81-2.48-13.44.3-15.22,6.27-4,17.5-6.31,25.42-8.27,12.67-3.13,25.67-3.93,38.68-3.93,6.43,0,13-.06,19.37.42,4.67,0.34,8.25,2,10.71,4.63,0.22,0.36.39,0.69,0.58,1,0.54,3.94.88,8.18,2,12a4,4,0,0,0,.21,1.07,3.39,3.39,0,0,0,0,.73C264.86,238.14,266.42,248.41,261.26,257.95Z"/>
    <path class="cls-2" d="M309,165c-1.37-4.35-8.2-2.38-6.82,2,4.8,15.24-3.64,31.85-20.61,33.2-11.63.93-22.56-6.38-31.56-12.92-16.91-12.29-30.93-28-47-41.32-27.86-23.16-62.55-39.12-99.29-38.78-34.08.31-67.5,15.06-87.54,43.18-13.39,18.79-30.53,68.44,5.65,74.23,4.48,0.72,6.24-6.17,1.72-6.89-27.68-4.43-14.23-42.77-5.1-57.9A93.1,93.1,0,0,1,62.8,122.26c37.51-15.39,79.87-7.25,113.69,13.24,31.42,19,53.4,53.88,87.56,68.26C290.52,214.91,318.07,193.64,309,165Z"/>
    <path class="cls-2" d="M86.8,139.87a99.23,99.23,0,0,0-27.07,37.06c-3.6,8.67-4.33,19.65-10.24,27.22-5.75,7.38-12.12,10.27-21.63,8.45-5.77-1.11-9.38-2.8-11.33-6.2a29.09,29.09,0,0,1-2.28-5,44.52,44.52,0,0,1,.48-11.29C16,181.23,20.4,166.69,26,159.42c9.24-12.09,23.5-23.77,24.42-24.42,8.63-6.16,25.13-12,26-12.28,16.64-4.79,32.74-4.17,48.56-3.7A106.84,106.84,0,0,0,86.8,139.87Z"/>
    <path class="cls-2" d="M304.33,71.14c-10.16-20.53-30.44-31.59-50.67-40.28-0.17-.1-0.32-0.21-0.5-0.3A390.78,390.78,0,0,0,196.64,5.34c-17.07-6-33.64-7.79-49.6.72A156.91,156.91,0,0,0,99,44.88C90.86,54.82,88.27,68,83.68,79.94,81.45,85.75,79.48,92.32,77,97.5c-2.2,4.66,1.62,9.91,6.82,8.59s10.35-3.58,15.67-4.77A14.89,14.89,0,0,0,101,101a71.36,71.36,0,0,1,8.47-1.13c54-2,77.32,8.84,116.68,23.93,10.25,3.93,25.1,13.31,34.81,18.42,5.56,2.93,9.32,5.41,14.92,8.91,4.49,2.8,11.11,8.23,15.52,9a6.18,6.18,0,0,0,6.59-2.84c3-4.7,4.2-11.85,5.65-17.17a109,109,0,0,0,3.41-19.5c0-.19.5-3.07,0.71-4.35C310.31,101.06,311.68,86,304.33,71.14Z"/>
    <path class="cls-2" d="M263.52,148.31c-22.82-14.31-48.91-25.18-74.35-34.13a239.76,239.76,0,0,0-30.44-8c-17.39-3.33-39.37-2.52-39.37-2.52s48.57,7,82.44,35.48c12.93,10.89,27.81,23.74,38.62,33.45,11.48,10.31,37.21,34.36,52.57,18C310.9,171.39,275.36,155.73,263.52,148.31Z"/>
    <path class="cls-3" d="M63.65,346.41L63,370.24l5.8-30,0.93,35,4-27.29L72,383.64l5.35-25.87-1.57,32-16.18-61,2.77,27.43-4.14-45.59,9.57,67.3,10.76-29-4.74,44.4,9.87-52.5L78.41,399.6l6.17-24.08v32l4-12V417L86,351.05l9.59,53.68v17L91.5,399.8l3.09,34.34,9.54-37.5-2.93,40.06-1-70.26,9.68,59.4-1.57-47-2.56,55.65,0.84,10.26,7.95-43v-22.7l3.2,31L120,383.42,117.58,445v17l7-29.6v24.87l-1.8-47.56,3.74-19.93,1.46,22.1,5.6-25.56V421.7L125.9,407.3l8,36.71-1.52-25.17-3.73,30.31-1.37,18.95,15-18.35-8.68,19.93,8.69-35.92-10.46,20.33,6.51-50.92,0.2,23.68,5.92-37.5,1.38,13.42,2.37-27.83L153,388.35l-6.32,21.31,13.62-25.06-23.48,50.92,29.41-47.36-21.31,54.27,15.39-65.72L149.4,448.35l8.09-21.91L149,468.67l-2-20.52-3.95,24.08,17.17-55.46-8.68,60.78,9.67-37.5-1,21.91,6.14-61,3.18,23.88V388.55L180.21,444l-12.84-18,5.13,54.07,0.39-39.87L162.43,487,166,447l17.37,30.79-4.54-30,12,32.76L177,397l6.51,53.09-2.37-53.48,3-6.12,7.38,53.68,1.06,24.87v14.21l8-8.49V454.86l-3.68-24.27,0.33,37.5,1.94,20.13L190.07,403l19.53,74.4-8.69-61.57,3.35,68.68,12-50.13-9.67-18.55,3,31.58,10.66,25.46-3.75-21.91,0.2-6.71L224.79,476,208,406.11,202.29,398l2.76,29-9.87-29,32.37,72.63-7.3-65.72-6.71,75.39,10.66-89.6,3.35,29,3.28-52.1-2.25,75V473.8l9-46.77V462l-0.67-82.49-6.16,56L247,388.15s-2.13,75.19-2.13,77.56-2.55-89-2.55-89l8.1,78,3.75-26.84,4.94,25.06-3.35-65.72s-4.54,39.47-4.54,38.29S252.42,372,252.42,372l10.26,27.43L253,345.92l6.71,67.49,4.74-36.9-2.17,54.86L266,450.52l6.32-41.44,1.78,30.39L268,406.11l1.78-42.63,8.09,66.11L281,396l4.54,31.77V386.18l5.92,33.35L281,332.5l-3.55,66.9-4.14-58.61,10.06,41.64-23.09-30L266,374.34l4.34-32,17.37,12.43-2.17-21.12,7.3,27.63,3-36.12,4.93,88-13-47.17,18.95,34.34-2.57-55.65-11.05,67.49,9.67-95.52,8.09,73.61L307.68,309l5.14,7.5,3.76-24.27V279.61l-5.44,25.26L323.91,269l-6.74,63.55,6.7-33.16-7.31,46,4.93,18.16-9.87-34.93L317,369.8l-1.78,21.12,9.47-47.56-13-24.47,9.28,10.06,5-47"/>
    <path class="cls-3" d="M99.36,365.53l6.21-22.28v12.14L112.39,337l8.59,3.85,10.66-12.43L113,347.59l18.65-19.13,3,10.36,9.47-15.69L146,338.82s4.58-12.14,4.58-9.47-3,9.47,0,9.47c5,0,21-17.17,21-17.17v17.17L170,323.73l13.54,21.89V329.34l11.33,23.09,2.65-14.8,5,17.17v-16l8.64,20.13,2-15.36s6.4,15.06,6.4,18.91V353c0-1.78,11.45,15.2,11.32,17.24s1.77-10.43,1.77-10.43,6.5,20.15,8.25,23.39-12.75-30.79-12.75-30.79l-21,.11-28.9-23.79-15.81,13.32-2.37-18.35-6.81,17.76-12.73-8.29-3.75-6.81-9,17.47-7.11-10.36"/>
  </g>
</svg>
