<svg id="Layer_2" data-name="Layer 2" xmlns="http://www.w3.org/2000/svg" viewBox="0 0 175.67 467.86">
  <defs>
    <style>
      .cls-1 {
        fill: none;
        stroke: #000;
        stroke-miterlimit: 10;
        stroke-width: 10px;
      }
    </style>
  </defs>
  <title>scroll_attention_arrow</title>
  <path class="cls-1" d="M437,317c10.17,17.8,25.8,37.69,50,49,47.2,22.06,92.28-4.75,98,6,9.85,18.53-82,72-155,103,8-41-1.7-191.83,9-168,11,24.5,13.89,16.93,36,33,30.43,22.11,69.63,21.63,102,16" transform="translate(-415.06 -15.42)"/>
  <path class="cls-1" d="M585,372c9.85,18.53-82,72-155,103-12.5-41.5-16.87-164.36,9-168" transform="translate(-415.06 -15.42)"/>
  <path class="cls-1" d="M473.36,35.53c19.09,15.38,47,42.44,61,83.12,36.27,105.2-30.74,218.68-33.77,233.77,15.36-10.58,22.72-22.32,27.92-29.87C551,290,557.3,240.27,554.95,175.14,551.76,87,478,28.06,467.29,19.3" transform="translate(-415.06 -15.42)"/>
</svg>
