<svg id="Layer_1" data-name="Layer 1" xmlns="http://www.w3.org/2000/svg" viewBox="0 0 715.48 175.98">
  <defs>
    <style>
      .cls-1 {
        fill: #29abe2;
      }
    </style>
  </defs>
  <title>welcome_handwriting</title>
  <path class="cls-1" d="M151,20.28q-2.72-5.59-7.32-5.59a10,10,0,0,0-4.6,1.76q-2.93,1.76-2.93,3.21,0,0.83,6.75,21.11a85,85,0,0,1,4.22,27.11q0,23-8.9,48.42-11.38,32.9-29.38,32.9-19.66,0-24.21-40.14Q84,101.59,83.38,96.63q-1.66-4.14-4.14-4.14-4.35,0-13.24,11-14.9,18.42-16.76,20.48-10.55,11-19,11-6,0-9.52-5.59A21.59,21.59,0,0,1,18,118.14a80.08,80.08,0,0,1,2.48-17.79Q22.76,91.66,24.62,83t2.48-13q0.62-2.69,6.21-17.59,5-13,5-15.73,0-4.55-2.07-4.55a9.53,9.53,0,0,0-5.79,2.48q-6.83,5.38-10.35,16.55-2.69,9.52-5.17,19.24Q10.55,83.18,8.07,89.59q-2.9,14.9-3.93,22.35-1.24,5.79-2.69,11.38A57.36,57.36,0,0,0,0,134.91a18.59,18.59,0,0,0,3.52,11.38A11.42,11.42,0,0,0,13.24,151q4.14,0,11.38-3.72,5.59-3.1,11-6.21A65.85,65.85,0,0,0,53.38,127L60.21,119a6.63,6.63,0,0,1,4.14-1.66,4,4,0,0,1,1.24.21q2.9,3.52,5.59,17.17,3.1,15.52,6,21.52,5.38,10.55,15.93,10.55,6.83,0,18-7.24,16.55-10.76,21.93-18.21,11-15.1,13.86-22.35,3.31-8.07,5.38-25.66Q155,69.94,155,64.56q0-2.89-1.78-23.28T151,20.28Z"/>
  <path class="cls-1" d="M264.84,106.76q6.62-25.86,9.73-42,3.93-24.62,5.48-37.14A167.14,167.14,0,0,0,281.6,9.1q0-9.1-5.17-9.1-3.93,0-9.83,3t-8,6.1a647.8,647.8,0,0,1-9.31,81.11Q242.7,120.63,239,135.53a84.15,84.15,0,0,0-2.37,14,28.78,28.78,0,0,1-4,1.2,101.69,101.69,0,0,1-21.46,2.22,48.82,48.82,0,0,1-20.55-4.37c-8-3.61-12.09-8.53-12.09-14.77v-5.62c1-1.8,1.29-2.7,2.81-2.7l0.93,0c-3.13-2.38-4.77-8.06-2.74-11.44,1.38-2.76,4.65-4.09,8.52-4a10.08,10.08,0,0,1-3.71-4.86,11.28,11.28,0,0,1-.6-3.73q0-5.47,5.79-9.26A19.68,19.68,0,0,1,200.29,89a18.25,18.25,0,0,1,9.93,2.73q5.17,3.16,5.17,8.42,0,5.48-6.21,9.47a20.2,20.2,0,0,1-11.38,3.58,16.14,16.14,0,0,1-9.73-3.16l0,0c-3.87-.09-7.14,1.24-8.52,4-2,3.39-.39,9.06,2.74,11.44a45.39,45.39,0,0,0,19.54-4.35,128.92,128.92,0,0,0,17.76-10.92,103.75,103.75,0,0,0,9.09-7.38q4.53-5,4.54-10.19,0-7.49-6.72-12.68a23.36,23.36,0,0,0-14.59-5.2,38.2,38.2,0,0,0-25.86,10q-14.9,13.06-20.48,26.44t-5.59,34.53q0,21.57,37,21.57,16,0,40.65-7.44c0,0.13.1,0.25,0.15,0.38a259.67,259.67,0,0,0,22.9-34.61Q262,117.54,264.84,106.76Z"/>
  <path class="cls-1" d="M459.12,98.28q-3.1-13.86-5.79-17.79-5.17-7-12.83-7-6.83,0-20.48,9.31L404.08,93.52q-12.62,8.49-16.55,14.69-4.76,7.45-4.76,21.52,0,13.41,4.54,22.79l-1,0a25.38,25.38,0,0,0-8.07,1.66q-6.21,2.07-7.86,2.48a119.94,119.94,0,0,1-22.76,2.28q-16.56,0-24.42-3.1-12.62-5-12.62-18.83,0-12.47,6.88-26.36c-7.62,12-9.62,27.82-12.93,42.37-0.69,3.43-3.72,6.39-6.53,9.84a16.55,16.55,0,0,0,9.06,9.53q7,3.31,22.76,3.31,4.76,0,30.42-5t30.67-12.43c0.16,0.2.33,0.39,0.49,0.58,4.22-12.47,1.57-26.93,7.14-38.86a46.89,46.89,0,0,1,6.58-10.44,33.77,33.77,0,0,1,5-9.4q7.45-9.51,17.59-9.52,9.31,0,15.1,11a41.19,41.19,0,0,1,5,19.66,29.18,29.18,0,0,1-6,18.21q-6.62,8.69-16.55,8.69-10.55,0-16.55-9.31a35.52,35.52,0,0,1-5.17-19.24,31.26,31.26,0,0,1,1.63-10.05A46.89,46.89,0,0,0,398.52,120c-5.57,11.93-2.92,26.4-7.14,38.86q6.73,7.9,17.88,7.92,12.21,0,24.62-9.72,13.66-10.76,18.83-16.76,9.31-11,9.31-22.76Q462,111.32,459.12,98.28Z"/>
  <path class="cls-1" d="M317.44,110.62l0.16-.34q8.48-16.34,19.66-16.35,6.62,0,12.83,8.59t9.52,8.59q3.93,0,7.24-7.45,2.89-6.41,2.9-11a15.49,15.49,0,0,0-5.59-12,18.5,18.5,0,0,0-12.62-5q-6.41,0-15.1,5.38a58.87,58.87,0,0,0-12.62,10.14q-13.24,14.48-17.38,21.93-4.55,8.49-8.69,26.48a64.67,64.67,0,0,0-1.24,14.07c0,0.43,0,.84,0,1.26a110.32,110.32,0,0,0-12.24,1.33A97.41,97.41,0,0,1,271,157.66q-11.59,0-11.59-20.07a75.14,75.14,0,0,1,1.21-12.08,259.67,259.67,0,0,1-22.9,34.61,12.77,12.77,0,0,0,6,6.85q5.17,2.9,16.35,2.9a117.51,117.51,0,0,0,24-2.9q9.22-1.86,13.82-4.35l0.08,0.2c2.81-3.46,5.84-6.41,6.53-9.84C307.82,138.44,309.82,122.58,317.44,110.62Z"/>
  <path class="cls-1" d="M640.52,131a17.54,17.54,0,0,1,3.08-3.64,2.2,2.2,0,0,1,2.37-1.89h0.27c4.47-2.52,9.81-2.55,15.31-2.41a39.72,39.72,0,0,0,4.71-2,127.43,127.43,0,0,0,17.67-10.92,100.83,100.83,0,0,0,9-7.38c3-3.33,4.52-6.72,4.52-10.19q0-7.49-6.73-12.68a23.38,23.38,0,0,0-14.59-5.2,38.21,38.21,0,0,0-25.87,10q-14.89,13.06-20.48,26.44t-5.59,34.53a21.76,21.76,0,0,0,.39,4.14q-26.05-2.27-28.52-27.27L593.4,94.76q-0.42-5-3.93-5-5.59,0-21.31,17.07t-20.69,17.07q-2.48,0-2.48-5a116.25,116.25,0,0,1,.93-12.21,115.23,115.23,0,0,0,.93-12q0-9.51-4.76-9.52-6.21,0-18.52,14T510.85,113.8l-8.28,14.9q-6.62,11-10.35,11-2.07,0-3.31-2.59a9.27,9.27,0,0,1-1-4.86l1.86-33.73q-2.28-6.62-7.45-6.62-4.14,0-7.86,6.62-2.07,3.52-2.69,13.24,0,1.24-.41,14.07c-0.55,19.45-.83,31.34-0.83,35.33,0,8,1.86,12.85,5.59,14.85h1.66c5.38,0,11.38-5.2,18-15.26,0.69-1.1,4.76-8.63,12.21-22.42,3.59-6.9,6.21-12.11,7.86-15.56a68.23,68.23,0,0,1,3.93-7.06c1.66-1.93,3.31-2.9,5-2.9a4,4,0,0,1,1.24.2q1.86,1.86,1.86,7,0,7.45-1,21.31-0.62,8.28-.62,9.31a7.73,7.73,0,0,0,4.34,7,21.55,21.55,0,0,0,2.28.21q7.24,0,14.69-10.55,5.79-9.93,11.38-19.66,6.41-10.55,11-10.55,3.52,0,4.76,7.24,2.27,16.56,3.31,24.83,1,6,9.31,11.59a40.41,40.41,0,0,0,13.86,6.41,36.1,36.1,0,0,0,7.66.62A33.13,33.13,0,0,0,629.41,161c2.2-4.29,4.79-8.45,6.11-13C637.52,142,637.52,136,640.52,131Zm13.3-38.86A19.68,19.68,0,0,1,664.58,89a18.25,18.25,0,0,1,9.93,2.73q5.17,3.16,5.17,8.42,0,5.48-6.21,9.47a20.2,20.2,0,0,1-11.38,3.58,16.14,16.14,0,0,1-9.73-3.16,10.1,10.1,0,0,1-4.34-8.63Q648,95.92,653.82,92.13Z"/>
  <path class="cls-1" d="M646.24,125.44A47.58,47.58,0,0,0,661.55,123C656,122.89,650.71,122.92,646.24,125.44Z"/>
  <path class="cls-1" d="M710.73,146.9a22,22,0,0,0-7,1.56,49.44,49.44,0,0,1-6.81,2.22,101.69,101.69,0,0,1-21.46,2.22,47.22,47.22,0,0,1-20.2-4.37c-8-3.61-11.74-8.53-11.74-14.77v-5.62a4.06,4.06,0,0,1,.08-0.81,17.54,17.54,0,0,0-3.08,3.64c-3,5-3,11-5,17-1.31,4.59-3.91,8.75-6.11,13,0.46-.35.92-0.71,1.37-1.09q9,7.25,30.49,7.26,17,0,43.66-8.36,10.55-3.13,10.55-9.83Q715.48,146.91,710.73,146.9Z"/>
</svg>
