
<!-- Generator: Adobe Illustrator 19.2.1, SVG Export Plug-In . SVG Version: 6.00 Build 0)  -->
<svg version="1.1" id="Layer_1" xmlns="http://www.w3.org/2000/svg" xmlns:xlink="http://www.w3.org/1999/xlink" x="0px" y="0px"
	 viewBox="0 0 715.5 176" style="enable-background:new 0 0 715.5 176;" xml:space="preserve">
<style type="text/css">
	.welcome1{fill:#29ABE2;}
</style>
<g>
	<g>
		<path class="welcome1" d="M143.7,16.7c0.8,0,3.3,0,5.5,4.4c0.2,0.7,0.6,4.2,2.1,20.4c1.2,13.5,1.8,21.3,1.8,23.1
			c0,3.5-0.9,13.1-2.7,28.5c-1.4,11.5-3.1,19.9-5.3,25.1c-1.9,4.7-6.4,12-13.6,21.9c-3.4,4.7-10.6,10.7-21.4,17.7
			c-7.1,4.6-12.8,6.9-16.9,6.9c-6.3,0-10.9-3.1-14.1-9.4c-1.8-3.8-3.8-10.9-5.8-21c-1.9-9.7-3.8-15.4-6-18.1l-0.4-0.4l-0.6-0.2
			c-0.6-0.2-1.2-0.3-1.9-0.3c-1.8,0-3.7,0.7-5.4,2.1l-0.2,0.1l-0.1,0.1l-6.8,8c-4.5,5.2-10.3,9.8-17.3,13.7
			c-3.6,2.1-7.3,4.2-10.9,6.2c-4.5,2.3-8,3.5-10.4,3.5c-3.5,0-6.2-1.3-8.1-3.9C3,142.3,2,138.9,2,134.9c0-3,0.5-6.8,1.4-11.1
			c1-3.8,1.9-7.6,2.7-11.4l0-0.1l0-0.1c0.7-4.9,2-12.3,3.9-22.1c1.7-4.3,3.9-10.7,6.8-19.2l0-0.1l0-0.1c1.7-6.5,3.4-12.9,5.2-19.2
			c2.2-7,5.5-12.2,9.7-15.6c1.6-1.3,3-2,4.3-2c0.1,0.3,0.3,1,0.3,2.5c0,0.7-0.5,3.6-4.8,15c-3.8,10.1-5.8,15.9-6.3,17.8l0,0.1l0,0.1
			c-0.4,2.8-1.2,7.2-2.5,12.9c-1.2,5.7-2.6,11.6-4.1,17.3l0,0l0,0c-1.7,7.2-2.5,13.3-2.5,18.3c0,4.8,1,8.9,3,12.2l0,0l0,0
			c2.7,4.3,6.5,6.5,11.2,6.5c6.3,0,13-3.8,20.5-11.6l0,0l0,0c1.3-1.4,6.8-8.1,16.8-20.6c7.5-9.2,10.7-10.2,11.7-10.2
			c0.7,0,1.5,1,2.2,2.7c0.4,3.2,0.8,7.3,1.2,12.1l0,0l0,0c3.2,27.8,12,41.9,26.2,41.9c12.9,0,23.4-11.5,31.3-34.2
			c6-17.1,9-33.6,9-49.1c0-9.8-1.5-19.2-4.3-27.7c-5-15-6.3-19.3-6.6-20.4c0.1-0.2,0.6-0.7,1.9-1.5
			C142.3,16.8,143.3,16.7,143.7,16.7 M143.7,14.7c-1.1,0-2.7,0.6-4.6,1.8c-2,1.2-2.9,2.2-2.9,3.2c0,0.6,2.2,7.6,6.7,21.1
			c2.8,8.4,4.2,17.5,4.2,27.1c0,15.3-3,31.4-8.9,48.4c-7.6,21.9-17.4,32.9-29.4,32.9c-13.1,0-21.2-13.4-24.2-40.1
			c-0.4-5-0.8-9.1-1.2-12.4c-1.1-2.8-2.5-4.1-4.1-4.1c-2.9,0-7.3,3.7-13.2,11c-9.9,12.3-15.5,19.1-16.8,20.5c-7,7.3-13.4,11-19,11
			c-4,0-7.2-1.9-9.5-5.6c-1.8-3-2.7-6.8-2.7-11.2c0-4.8,0.8-10.8,2.5-17.8c1.5-5.8,2.9-11.6,4.1-17.4c1.2-5.8,2.1-10.1,2.5-13
			c0.4-1.8,2.5-7.7,6.2-17.6c3.3-8.7,5-13.9,5-15.7c0-3-0.7-4.6-2.1-4.6c-1.8,0-3.7,0.8-5.8,2.5c-4.6,3.6-8,9.1-10.3,16.6
			c-1.8,6.3-3.5,12.8-5.2,19.2c-2.9,8.6-5.2,15-6.8,19.2c-1.9,9.9-3.2,17.4-3.9,22.3c-0.8,3.9-1.7,7.7-2.7,11.4
			c-1,4.6-1.4,8.4-1.4,11.6c0,4.4,1.2,8.2,3.5,11.4c2.3,3.2,5.6,4.8,9.7,4.8c2.8,0,6.5-1.2,11.4-3.7c3.7-2.1,7.4-4.1,11-6.2
			c7.2-4,13.1-8.7,17.8-14.1c3-3.6,5.3-6.3,6.8-8.1c1.4-1.1,2.8-1.7,4.1-1.7c0.4,0,0.8,0.1,1.2,0.2c1.9,2.3,3.8,8.1,5.6,17.2
			c2.1,10.3,4.1,17.5,6,21.5c3.6,7,8.9,10.6,15.9,10.6c4.6,0,10.6-2.4,18-7.2c11-7.2,18.3-13.2,21.9-18.2
			c7.3-10.1,11.9-17.5,13.9-22.3c2.2-5.4,4-13.9,5.4-25.7c1.8-15.6,2.7-25.2,2.7-28.8c0-1.9-0.6-9.7-1.8-23.3
			c-1.2-13.6-1.9-20.6-2.2-21C149.2,16.6,146.7,14.7,143.7,14.7L143.7,14.7z"/>
	</g>
</g>
<g>
	<g>
		<path class="welcome1" d="M276.4,2c0.8,0,3.2,0,3.2,7.1c0,3.9-0.5,10-1.5,18.3c-1,8.2-2.9,20.7-5.5,37c-2.1,10.7-5.3,24.7-9.7,41.8
			c-1.8,7-3.2,13.3-4.1,18.6c-6.1,11.2-13.5,22.3-21.7,33c-16.2,4.9-29.6,7.3-40,7.3c-23.6,0-35-6.4-35-19.6
			c0-13.8,1.8-25.1,5.4-33.8c3.6-8.6,10.3-17.2,20-25.7c7.2-6.3,15.4-9.5,24.5-9.5c4.8,0,9.2,1.6,13.4,4.8c4,3.1,5.9,6.7,5.9,11.1
			c0,2.9-1.3,5.9-4,8.8c-1.3,1.3-4.3,3.7-8.8,7.2c-4.5,3.4-10.4,7-17.4,10.7c-5.2,2.5-11.2,3.9-17.9,4.1c-1.4-1.4-2.4-3.7-2.4-5.9
			c0-1,0.2-1.9,0.6-2.5l0-0.1l0-0.1l0-0.1l0,0c0.9-1.8,3.1-2.8,6.1-2.8c3.1,2.1,6.6,3.2,10.4,3.2c4.4,0,8.6-1.3,12.5-3.9
			c4.7-3,7.1-6.8,7.1-11.2c0-4.2-2.1-7.6-6.1-10.1c-3.2-2-6.9-3-11-3c-4.2,0-8.2,1.2-11.9,3.5c-4.4,2.9-6.7,6.6-6.7,10.9
			c0,1.6,0.2,3,0.7,4.4c0.3,1,0.8,1.9,1.3,2.7c-2.8,0.7-4.9,2.3-6,4.5l0,0c-0.7,1.3-1.1,2.8-1.1,4.5c0,2.4,0.8,4.8,2,6.8
			c-0.7,0.6-1.2,1.5-1.6,2.2c-0.1,0.2-0.2,0.4-0.3,0.6l-0.3,0.5v0.5v1.9v3.7c0,7,4.5,12.6,13.3,16.6c6.6,3,13.8,4.6,21.4,4.6
			c7.5,0,14.9-0.8,21.8-2.3c0.5-0.1,1.6-0.3,4.3-1.3l1.2-0.4l0.1-1.3c0.3-3.9,1-8.4,2.3-13.6c2.5-9.8,5.9-25.1,10.4-45.4l0,0l0,0
			c4.6-25.6,7.8-52.7,9.3-80.8c1.3-1.6,3.6-3.3,6.9-5C271.1,2.9,274.1,2,276.4,2 M276.4,0c-2.6,0-5.9,1-9.8,3c-3.9,2-6.6,4-8,6.1
			c-1.5,28.3-4.6,55.3-9.3,81.1c-4.4,20.3-7.9,35.4-10.3,45.3c-1.3,5.3-2.1,10-2.4,14c-2,0.7-3.3,1.1-4,1.2
			c-6.9,1.5-14,2.2-21.5,2.2c-7.3,0-14.2-1.5-20.6-4.4c-8-3.6-12.1-8.5-12.1-14.8c0-1.6,0-2.8,0-3.7c0-1.1,0-1.8,0-1.9
			c1-1.8,1.3-2.7,2.8-2.7c0.3,0,0.6,0,0.9,0c-2.2-1.7-3.6-4.9-3.6-7.9c0-1.3,0.3-2.5,0.9-3.6c0,0,0,0,0,0c0,0,0,0,0,0
			c1.3-2.6,4.4-4,8.1-4c0,0,0,0,0,0l0,0l0,0h0c0.1,0,0.2,0,0.4,0c-1.8-1.3-3-2.9-3.7-4.9c-0.4-1.1-0.6-2.4-0.6-3.7
			c0-3.6,1.9-6.7,5.8-9.3c3.3-2.1,6.9-3.2,10.8-3.2c3.7,0,7,0.9,9.9,2.7c3.4,2.1,5.2,4.9,5.2,8.4c0,3.7-2.1,6.8-6.2,9.5
			c-3.6,2.4-7.4,3.6-11.4,3.6c-3.6,0-6.8-1.1-9.7-3.2c0,0,0,0,0,0c-0.1,0-0.2,0-0.4,0h0c0,0,0,0,0,0c-3.7,0-6.8,1.3-8.1,4
			c0,0,0,0,0,0c0,0,0,0,0,0c-0.6,1-0.9,2.3-0.9,3.6c0,3,1.5,6.2,3.6,7.9c7.3-0.1,13.9-1.6,19.5-4.3c7.1-3.7,13.1-7.4,17.8-10.9
			c4.7-3.5,7.7-6,9.1-7.4c3-3.3,4.5-6.7,4.5-10.2c0-5-2.2-9.2-6.7-12.7c-4.5-3.5-9.3-5.2-14.6-5.2c-9.7,0-18.3,3.3-25.9,10
			c-9.9,8.7-16.8,17.5-20.5,26.4c-3.7,8.9-5.6,20.4-5.6,34.5c0,14.4,12.3,21.6,37,21.6c10.7,0,24.2-2.5,40.6-7.4
			c0,0.1,0.1,0.3,0.2,0.4c8.4-10.8,16.2-22.4,22.9-34.6c0.9-5.3,2.3-11.6,4.2-18.7c4.4-17.2,7.7-31.2,9.7-42
			c2.6-16.4,4.4-28.8,5.5-37.1c1-8.3,1.6-14.5,1.6-18.5C281.6,3,279.9,0,276.4,0L276.4,0z"/>
	</g>
</g>
<g>
	<g>
		<path class="welcome1" d="M440.5,75.5c4.5,0,8.1,2,11.2,6.2c1.1,1.7,3,6,5.5,17.1c1.9,8.5,2.8,14.8,2.8,18.8c0,7.3-3,14.6-8.8,21.5
			c-3.4,3.9-9.6,9.4-18.5,16.5c-7.9,6.2-15.7,9.3-23.4,9.3c-6.5,0-11.6-2.1-15.6-6.4c1.7-5.6,2.2-11.5,2.7-17.2
			c0.6-7.3,1.2-14.2,4.1-20.4c0.4-0.8,0.7-1.6,1.1-2.3c0,0.4,0,0.7,0,1.1c0,7.7,1.8,14.5,5.5,20.3c4.4,6.8,10.5,10.2,18.2,10.2
			c7.2,0,13.3-3.2,18.1-9.5c4.3-5.6,6.4-12.1,6.4-19.4c0-7.2-1.7-14.1-5.2-20.6c-4.2-8-9.9-12-16.9-12c-7.4,0-13.8,3.5-19.2,10.3
			c-2.3,3-4,6.3-5.2,9.6c-2.7,3.3-4.9,6.9-6.6,10.6c-3.2,6.8-3.8,14.4-4.4,21.7c-0.4,4.6-0.8,9.3-1.8,13.7l-1.4-2.9
			c-2.9-6-4.3-13.3-4.3-21.9c0-9,1.5-15.8,4.4-20.4c2.5-3.9,7.8-8.6,16-14.1l15.9-10.8C429.9,78.5,436.4,75.5,440.5,75.5
			 M308.9,141.7c1.3,7.6,5.8,12.9,13.5,16c5.5,2.2,13.8,3.2,25.2,3.2c7.4,0,15.2-0.8,23.1-2.3l0.1,0l0.1,0c1.2-0.3,3.8-1.1,8-2.5
			c2.9-1,5.4-1.5,7.4-1.5c0.3,0,0.6,0,0.9,0l3.3,0.1c-0.1,0.3-0.2,0.7-0.2,1l-1,1.5c-2.1,3.1-8.8,7.6-29.4,11.6
			c-21.1,4.1-28,4.9-30,4.9c-10.1,0-17.5-1-21.9-3.1c-3.6-1.6-6-4-7.6-7.4c0.3-0.3,0.6-0.7,0.8-1c2.4-2.8,4.7-5.5,5.3-8.8
			c0.7-2.9,1.3-5.9,1.9-8.7C308.5,143.7,308.7,142.7,308.9,141.7 M440.5,73.5c-4.6,0-11.4,3.1-20.5,9.3l-15.9,10.8
			c-8.4,5.7-13.9,10.6-16.6,14.7c-3.2,5-4.8,12.1-4.8,21.5c0,8.9,1.5,16.5,4.5,22.8c-0.3,0-0.7,0-1,0c-2.2,0-4.9,0.6-8.1,1.7
			c-4.1,1.4-6.8,2.2-7.9,2.5c-7.9,1.5-15.5,2.3-22.8,2.3c-11,0-19.2-1-24.4-3.1c-8.4-3.3-12.6-9.6-12.6-18.8
			c0-8.3,2.3-17.1,6.9-26.4c-7.6,12-9.6,27.8-12.9,42.4c-0.7,3.4-3.7,6.4-6.5,9.8c1.6,4.4,4.7,7.5,9.1,9.5
			c4.7,2.2,12.3,3.3,22.8,3.3c3.2,0,13.3-1.7,30.4-5c17.1-3.3,27.3-7.5,30.7-12.4c0.2,0.2,0.3,0.4,0.5,0.6
			c4.2-12.5,1.6-26.9,7.1-38.9c1.7-3.7,3.9-7.2,6.6-10.4c1.1-3.3,2.8-6.4,5-9.4c5-6.3,10.8-9.5,17.6-9.5c6.2,0,11.2,3.7,15.1,11
			c3.3,6.2,5,12.8,5,19.7c0,6.9-2,13-6,18.2c-4.4,5.8-9.9,8.7-16.6,8.7c-7,0-12.6-3.1-16.6-9.3c-3.5-5.5-5.2-11.9-5.2-19.2
			c0-3.5,0.5-6.8,1.6-10.1c-2.7,3.3-4.9,6.8-6.6,10.4c-5.6,11.9-2.9,26.4-7.1,38.9c4.5,5.3,10.4,7.9,17.9,7.9
			c8.1,0,16.3-3.2,24.6-9.7c9.1-7.2,15.4-12.8,18.8-16.8c6.2-7.3,9.3-14.9,9.3-22.8c0-4.1-1-10.6-2.9-19.2c-2.1-9.2-4-15.2-5.8-17.8
			C449.9,75.8,445.6,73.5,440.5,73.5L440.5,73.5z"/>
	</g>
</g>
<g>
	<g>
		<path class="welcome1" d="M351.5,77.7c4.2,0,7.9,1.5,11.3,4.5c3.3,2.9,4.9,6.4,4.9,10.5c0,2.7-0.9,6.1-2.7,10.2c-1.8,4-3.7,6.3-5.4,6.3
			c-0.4,0-2.6-0.4-7.9-7.8c-4.5-6.2-9.4-9.4-14.4-9.4c-8.2,0-15.4,5.9-21.4,17.5c0,0.1-0.1,0.2-0.1,0.2l0,0
			c-6.3,9.9-8.8,22.3-11.3,34.2c-0.6,2.9-1.2,5.8-1.8,8.7l0,0l0,0c-0.5,2.3-2.3,4.5-4.5,7c-0.3,0.4-0.7,0.8-1,1.2l-0.1,0.1
			c-2.9,1.6-7.3,3-13.3,4.2c-8.9,1.9-16.9,2.9-23.6,2.9c-7.1,0-12.2-0.9-15.4-2.7c-2.1-1.1-3.6-2.7-4.6-4.8
			c6.4-8.3,12.3-16.8,17.5-25.4c-0.1,0.9-0.1,1.8-0.1,2.6c0,14.6,4.6,22.1,13.6,22.1c3,0,7.6-0.5,13.5-1.4c5.2-0.8,9.2-1.2,12-1.3
			l2-0.1l-0.1-2c0-0.4,0-0.8,0-1.2c0-5.6,0.4-10.2,1.2-13.6c2.7-11.8,5.6-20.5,8.5-26c2.7-4.8,8.4-12.1,17.1-21.5
			c3.3-3.6,7.4-6.9,12.2-9.8C342.9,79.4,347.7,77.7,351.5,77.7 M351.5,75.7c-4.3,0-9.3,1.8-15.1,5.4c-5,3-9.2,6.4-12.6,10.1
			c-8.8,9.7-14.6,17-17.4,21.9c-3,5.7-5.9,14.5-8.7,26.5c-0.8,3.6-1.2,8.3-1.2,14.1c0,0.4,0,0.8,0,1.3c-2.9,0.1-7,0.5-12.2,1.3
			c-5.9,0.9-10.3,1.3-13.2,1.3c-7.7,0-11.6-6.7-11.6-20.1c0-3.3,0.4-7.3,1.2-12.1c-6.7,12.2-14.5,23.8-22.9,34.6
			c1.2,3,3.1,5.3,6,6.9c3.4,1.9,8.9,2.9,16.3,2.9c6.9,0,14.9-1,24-2.9c6.1-1.2,10.8-2.7,13.8-4.3c0,0.1,0.1,0.1,0.1,0.2
			c2.8-3.5,5.8-6.4,6.5-9.8c3.3-14.5,5.3-30.4,12.9-42.4c0.1-0.1,0.1-0.2,0.2-0.3c5.7-10.9,12.2-16.3,19.7-16.3
			c4.4,0,8.7,2.9,12.8,8.6c4.1,5.7,7.3,8.6,9.5,8.6c2.6,0,5-2.5,7.2-7.4c1.9-4.3,2.9-7.9,2.9-11c0-4.7-1.9-8.7-5.6-12
			C360.4,77.4,356.2,75.7,351.5,75.7L351.5,75.7z"/>
	</g>
</g>
<g>
	<path class="welcome1" d="M676.2,76.7c4.8,0,9.3,1.6,13.4,4.8c4,3.1,6,6.7,6,11.1c0,3-1.3,5.9-4,8.8c-0.9,1-3.2,3-8.8,7.2
		c-4.6,3.5-10.5,7.1-17.3,10.7c-1.3,0.6-2.7,1.2-4.1,1.7c-0.8,0-1.8,0-2.7,0c-4,0-8.7,0.3-12.8,2.5c-1.9,0.1-3.3,1.1-3.9,2.8
		c-1.1,1.1-2.1,2.3-3,3.7l0,0l0,0c-2,3.4-2.8,7.1-3.5,10.8c-0.4,2.2-0.9,4.4-1.6,6.6l0,0l0,0c-0.9,3.3-2.6,6.4-4.3,9.6
		c-0.5,0.9-0.9,1.8-1.4,2.7c-5.5,4.1-11.9,6.1-19.1,6.1c-3.1,0-5.6-0.2-7.2-0.6c-4.4-1-8.9-3.1-13.2-6.1c-5-3.4-7.8-6.8-8.5-10.2
		c-0.7-5.5-1.8-13.8-3.3-24.8l0,0l0,0c-1-5.9-3.3-8.9-6.7-8.9c-3.9,0-7.9,3.7-12.7,11.6c-3.6,6.2-7.4,12.8-11.3,19.6
		c-4.5,6.4-8.9,9.6-13,9.6c-0.1,0-0.6,0-1.6-0.1c-2-1.3-3-2.9-3-5.1c0-0.4,0.1-2,0.6-9.2c0.7-9.3,1-16.5,1-21.5c0-4-0.8-6.8-2.4-8.4
		l-0.3-0.3l-0.5-0.1c-0.6-0.2-1.2-0.3-1.9-0.3c-2.3,0-4.4,1.2-6.5,3.6l0,0l0,0c-0.5,0.6-1.3,1.9-4.1,7.4l0,0l0,0
		c-1.8,3.7-4.5,9-7.8,15.5c-7.1,13.2-11.5,21.3-12.1,22.3c-6.2,9.4-11.8,14.4-16.3,14.4h-1.1c-2.7-1.8-4.1-6.1-4.1-12.8
		c0-4,0.3-16.2,0.8-35.3c0.3-8.4,0.4-13.1,0.4-14.1c0.5-7.6,1.6-10.9,2.4-12.3c1.4-2.6,3.7-5.6,6.1-5.6c1.6,0,3.8,0.5,5.4,4.9
		l-1.8,33.3c-0.2,1.9,0.3,3.8,1.2,5.9c1.5,3.1,3.6,3.7,5.1,3.7c3.4,0,7.1-3.7,12.1-11.9l0,0l0,0l2.7-4.8l5.5-9.9
		c0.4-0.5,2.7-3.2,12.5-14.4c10.2-11.6,15-13.3,17-13.3c2.3,0,2.8,4.1,2.8,7.5c0,2.5-0.3,6.5-0.9,11.8c-0.6,5.5-0.9,9.6-0.9,12.4
		c0,6.1,2.8,7,4.5,7c2.7,0,7.7-2,22.2-17.7c13.7-14.8,18.4-16.4,19.8-16.4c0.6,0,1.7,0,1.9,3.2l2.7,27.7
		c1.7,17.7,11.9,27.5,30.3,29.1l2.6,0.2l-0.5-2.6c-0.2-1.2-0.3-2.5-0.3-3.8c0-13.8,1.8-25.1,5.4-33.8c3.6-8.6,10.3-17.2,20-25.7
		C658.8,79.9,667.1,76.7,676.2,76.7 M662.1,115.2c4.4,0,8.6-1.3,12.5-3.9c4.7-3,7.1-6.8,7.1-11.2c0-4.2-2.1-7.6-6.1-10.1
		c-3.2-2-6.9-3-11-3c-4.2,0-8.2,1.2-11.9,3.5c-4.4,2.9-6.7,6.6-6.7,10.9c0,4.3,1.7,7.8,5.2,10.2C654.4,114,658.1,115.2,662.1,115.2
		 M676.2,74.7c-9.7,0-18.3,3.3-25.9,10c-9.9,8.7-16.8,17.5-20.5,26.4c-3.7,8.9-5.6,20.4-5.6,34.5c0,1.5,0.1,2.8,0.4,4.1
		c-17.4-1.5-26.9-10.6-28.5-27.3l-2.7-27.7c-0.3-3.3-1.6-5-3.9-5c-3.7,0-10.8,5.7-21.3,17.1c-10.5,11.4-17.4,17.1-20.7,17.1
		c-1.7,0-2.5-1.7-2.5-5c0-2.8,0.3-6.8,0.9-12.2c0.6-5.4,0.9-9.4,0.9-12c0-6.3-1.6-9.5-4.8-9.5c-4.1,0-10.3,4.7-18.5,14
		c-8.2,9.3-12.4,14.2-12.7,14.6c-2.8,5-5.5,9.9-8.3,14.9c-4.4,7.3-7.9,11-10.3,11c-1.4,0-2.5-0.9-3.3-2.6c-0.8-1.7-1.2-3.3-1-4.9
		l1.9-33.7c-1.5-4.4-4-6.6-7.4-6.6c-2.8,0-5.4,2.2-7.9,6.6c-1.4,2.3-2.3,6.8-2.7,13.2c0,0.8-0.1,5.5-0.4,14.1
		c-0.6,19.4-0.8,31.3-0.8,35.3c0,8,1.9,12.8,5.6,14.8c0.8,0,1.4,0,1.7,0c5.4,0,11.4-5.2,18-15.3c0.7-1.1,4.8-8.6,12.2-22.4
		c3.6-6.9,6.2-12.1,7.9-15.6c2.1-4,3.4-6.4,3.9-7.1c1.7-1.9,3.3-2.9,5-2.9c0.4,0,0.8,0.1,1.2,0.2c1.2,1.2,1.9,3.6,1.9,7
		c0,5-0.3,12.1-1,21.3c-0.4,5.5-0.6,8.6-0.6,9.3c0,3,1.4,5.4,4.3,7c1.1,0.1,1.9,0.2,2.3,0.2c4.8,0,9.7-3.5,14.7-10.6
		c3.9-6.6,7.7-13.2,11.4-19.7c4.3-7,7.9-10.6,11-10.6c2.3,0,3.9,2.4,4.8,7.2c1.5,11,2.6,19.3,3.3,24.8c0.7,4,3.8,7.9,9.3,11.6
		c4.6,3.2,9.2,5.3,13.9,6.4c1.8,0.4,4.3,0.6,7.7,0.6c7.9,0,14.8-2.3,20.7-6.8c2.2-4.3,4.8-8.4,6.1-13c2-6,2-12,5-17
		c0.9-1.5,2-2.7,3.1-3.6c0.3-1.3,1.1-1.9,2.4-1.9c0.1,0,0.2,0,0.3,0c3.6-2.1,7.9-2.5,12.3-2.5c1,0,2,0,3,0c1.6-0.6,3.2-1.2,4.7-2
		c7.1-3.7,13-7.4,17.7-10.9c4.7-3.5,7.7-6,9-7.4c3-3.3,4.5-6.7,4.5-10.2c0-5-2.2-9.2-6.7-12.7C686.3,76.4,681.4,74.7,676.2,74.7
		L676.2,74.7z M662.1,113.2c-3.6,0-6.8-1.1-9.7-3.2c-2.9-2.1-4.3-5-4.3-8.6c0-3.6,1.9-6.7,5.8-9.3c3.3-2.1,6.9-3.2,10.8-3.2
		c3.7,0,7,0.9,9.9,2.7c3.4,2.1,5.2,4.9,5.2,8.4c0,3.7-2.1,6.8-6.2,9.5C669.9,112,666.1,113.2,662.1,113.2L662.1,113.2z"/>
</g>
<path class="welcome1" d="M646.2,125.4c5.6,0,10.7-0.8,15.3-2.4C656,122.9,650.7,122.9,646.2,125.4z"/>
<g>
	<g>
		<path class="welcome1" d="M641.5,133.4v0.4c0,7.1,4.3,12.7,12.9,16.6c6.7,3.1,13.5,4.6,21,4.6c7.5,0,14.9-0.8,21.8-2.3
			c0.7-0.1,2.3-0.5,7.1-2.3c2.7-1,4.8-1.4,6.3-1.4c1.7,0,2.5,0.2,2.7,0.4c0,1.5-0.5,5.1-9.1,7.7c-17.5,5.5-32,8.3-43.1,8.3
			c-13.2,0-22.8-2.1-28.5-6.2c1.8-3.3,3.6-6.7,4.6-10.4c0.8-2.4,1.3-4.8,1.8-7C639.8,138.6,640.3,135.8,641.5,133.4 M643.6,127.3
			c-1.1,1-2.1,2.2-3.1,3.6c-3,5-3,11-5,17c-1.3,4.6-3.9,8.7-6.1,13c0.5-0.4,0.9-0.7,1.4-1.1c6,4.8,16.2,7.3,30.5,7.3
			c11.3,0,25.9-2.8,43.7-8.4c7-2.1,10.6-5.4,10.6-9.8c0-1.4-1.6-2.1-4.7-2.1c-1.8,0-4.1,0.5-7,1.6c-3.6,1.3-5.8,2.1-6.8,2.2
			c-6.9,1.5-14,2.2-21.5,2.2c-7.3,0-13.9-1.5-20.2-4.4c-8-3.6-11.7-8.5-11.7-14.8c0-3.5,0-5.3,0-5.6
			C643.5,127.9,643.6,127.6,643.6,127.3L643.6,127.3z"/>
	</g>
</g>
</svg>
